<svg width="401.169921875px" height="120.8px" xmlns="http://www.w3.org/2000/svg" viewBox="49.4150390625 14.600000000000001 401.169921875 120.8" style="background: rgba(0, 0, 0, 0);" preserveAspectRatio="xMidYMid"><defs><linearGradient id="editing-gradow-gradient" x1="0" x2="1" y1="0.5" y2="0.5" gradientUnits="objectBoundingBox"><stop offset="0" stop-color="#f0f"></stop><stop offset="1" stop-color="#0ff"></stop></linearGradient><filter id="editing-gradow-filter" x="-100%" y="-100%" width="300%" height="300%"><feFlood flood-color="#fffcd9" result="flood"></feFlood><feComposite operator="in" in2="SourceAlpha" in="flood" result="shadow"></feComposite><feOffset dx="-4" dy="-4" in="SourceGraphic" result="offset-1"></feOffset><feMerge><feMergeNode in="offset-2"></feMergeNode><feMergeNode in="offset-1"></feMergeNode></feMerge></filter></defs><g filter="url(#editing-gradow-filter)"><g transform="translate(110.33784031867981, 97.43000030517578)"><path d="M2.05-15.62L2.05-15.62L2.05-15.62Q2.05-27.71 8.32-35.33L8.32-35.33L8.32-35.33Q14.98-43.58 26.56-43.58L26.56-43.58L26.56-43.58Q34.94-43.58 39.17-39.52L39.17-39.52L39.17-39.52Q43.39-35.46 43.39-26.88L43.39-26.88L43.39-26.88Q43.39-13.82 36.74-6.21L36.74-6.21L36.74-6.21Q30.14 1.28 19.07 1.28L19.07 1.28L19.07 1.28Q10.43 1.28 6.24-3.04L6.24-3.04L6.24-3.04Q2.05-7.36 2.05-15.62ZM18.88-28.86L18.88-28.86L18.88-28.86Q16-17.34 16-8.26L16-8.26L16-8.26Q16-6.08 16.74-4.67L16.74-4.67L16.74-4.67Q17.47-3.26 19.42-3.26L19.42-3.26L19.42-3.26Q21.38-3.26 22.59-4.19L22.59-4.19L22.59-4.19Q23.81-5.12 24.77-7.23L24.77-7.23L24.77-7.23Q26.30-10.69 27.74-18.02L27.74-18.02L27.74-18.02Q29.18-25.34 29.31-28.38L29.31-28.38L29.31-28.38Q29.44-31.42 29.44-33.73L29.44-33.73L29.44-33.73Q29.44-36.03 28.74-37.50L28.74-37.50L28.74-37.50Q28.03-38.98 26.14-38.98L26.14-38.98L26.14-38.98Q24.26-38.98 22.98-37.82L22.98-37.82L22.98-37.82Q20.61-35.65 18.88-28.86ZM53.12 0L46.08 0L53.76-42.24L67.52-42.24L77.50-13.18L82.82-42.24L89.92-42.18L82.11 0L67.46 0L58.24-27.97L53.12 0ZM117.44-10.82L117.44-10.82L117.44-10.82Q119.04-9.73 119.04-7.33L119.04-7.33L119.04-7.33Q119.04-4.93 117.82-3.39L117.82-3.39L117.82-3.39Q116.61-1.86 114.62-0.83L114.62-0.83L114.62-0.83Q110.53 1.28 106.11 1.28L106.11 1.28L106.11 1.28Q101.70 1.28 99.10 0.32L99.10 0.32L99.10 0.32Q96.51-0.64 94.78-2.43L94.78-2.43L94.78-2.43Q91.39-5.82 91.39-12.03L91.39-12.03L91.39-12.03Q91.39-21.70 96.64-27.58L96.64-27.58L96.64-27.58Q102.27-33.92 112.06-33.92L112.06-33.92L112.06-33.92Q118.14-33.92 121.15-31.36L121.15-31.36L121.15-31.36Q123.39-29.44 123.39-26.30L123.39-26.30L123.39-26.30Q123.39-15.04 103.94-15.04L103.94-15.04L103.94-15.04Q103.68-13.38 103.68-11.97L103.68-11.97L103.68-11.97Q103.68-9.02 104.99-7.90L104.99-7.90L104.99-7.90Q106.30-6.78 108.74-6.78L108.74-6.78L108.74-6.78Q111.17-6.78 113.76-7.90L113.76-7.90L113.76-7.90Q116.35-9.02 117.44-10.82ZM104.38-17.79L104.38-17.79L104.38-17.79Q108.93-17.79 111.55-20.61L111.55-20.61L111.55-20.61Q114.18-23.30 114.18-27.58L114.18-27.58L114.18-27.58Q114.18-29.06 113.63-29.86L113.63-29.86L113.63-29.86Q113.09-30.66 112-30.66L112-30.66L112-30.66Q110.91-30.66 109.98-30.24L109.98-30.24L109.98-30.24Q109.06-29.82 108.10-28.42L108.10-28.42L108.10-28.42Q105.73-25.22 104.38-17.79ZM145.34 0L138.30 0L145.98-42.24L159.74-42.24L169.73-13.18L175.04-42.24L182.14-42.18L174.34 0L159.68 0L150.46-27.97L145.34 0ZM197.70 1.28L197.70 1.28L197.70 1.28Q183.62 1.28 183.62-11.97L183.62-11.97L183.62-11.97Q183.62-21.38 188.80-27.46L188.80-27.46L188.80-27.46Q194.30-33.92 203.84-33.92L203.84-33.92L203.84-33.92Q210.75-33.92 214.27-30.72L214.27-30.72L214.27-30.72Q217.79-27.52 217.79-20.80L217.79-20.80L217.79-20.80Q217.79-10.56 212.29-4.61L212.29-4.61L212.29-4.61Q206.91 1.28 197.70 1.28ZM199.36-26.56L199.36-26.56L199.36-26.56Q198.59-24.83 197.98-22.24L197.98-22.24L197.98-22.24Q197.38-19.65 196.61-15.55L196.61-15.55L196.61-15.55Q195.84-11.46 195.84-6.40L195.84-6.40L195.84-6.40Q195.84-4.74 196.38-3.65L196.38-3.65L196.38-3.65Q196.93-2.56 198.40-2.56L198.40-2.56L198.40-2.56Q199.87-2.56 200.80-3.26L200.80-3.26L200.80-3.26Q201.73-3.97 202.43-5.63L202.43-5.63L202.43-5.63Q203.71-8.58 204.74-14.05L204.74-14.05L204.74-14.05Q205.76-19.52 205.86-21.89L205.86-21.89L205.86-21.89Q205.95-24.26 205.95-26.02L205.95-26.02L205.95-26.02Q205.95-27.78 205.44-28.93L205.44-28.93L205.44-28.93Q204.93-30.08 203.49-30.08L203.49-30.08L203.49-30.08Q202.05-30.08 201.09-29.18L201.09-29.18L201.09-29.18Q200.13-28.29 199.36-26.56ZM222.59-6.40L222.59-6.40L222.59-6.40Q222.59-8.13 223.49-12.48L223.49-12.48L226.88-29.76L223.10-29.76L223.36-31.68L223.36-31.68Q231.04-33.98 238.46-39.62L238.46-39.62L241.54-39.62L240.00-32.64L244.99-32.64L244.42-29.76L239.49-29.76L236.22-12.48L236.22-12.48Q235.39-8.51 235.39-7.17L235.39-7.17L235.39-7.17Q235.39-4.10 238.08-3.46L238.08-3.46L238.08-3.46Q237.44-1.28 235.14 0L235.14 0L235.14 0Q232.83 1.28 229.57 1.28L229.57 1.28L229.57 1.28Q226.30 1.28 224.45-0.77L224.45-0.77L224.45-0.77Q222.59-2.82 222.59-6.40ZM272-9.86L272-9.86L272-9.86Q273.22-8.32 273.22-5.82L273.22-5.82L273.22-5.82Q273.22-2.37 270.66-0.54L270.66-0.54L270.66-0.54Q268.10 1.28 264.06 1.28L264.06 1.28L264.06 1.28Q261.76 1.28 258.24 0.77L258.24 0.77L258.24 0.77Q251.33-0.32 249.22-0.32L249.22-0.32L249.22-0.32Q247.10-0.32 246.27-0.22L246.27-0.22L246.27-0.22Q245.44-0.13 244.10 0L244.10 0L251.97-42.24L279.55-42.24L279.55-42.24Q279.55-38.34 277.66-36.29L277.66-36.29L277.66-36.29Q275.78-34.24 272.06-34.24L272.06-34.24L272.06-34.24Q268.35-34.24 264.58-35.97L264.58-35.97L262.59-24.77L273.98-24.77L273.98-24.77Q273.98-21.38 272.32-19.49L272.32-19.49L272.32-19.49Q270.66-17.60 267.87-17.60L267.87-17.60L267.87-17.60Q265.09-17.60 263.36-18.24L263.36-18.24L263.36-18.24Q261.63-18.88 261.44-19.07L261.44-19.07L259.14-6.98L259.14-6.98Q260.67-6.78 263.55-6.78L263.55-6.78L263.55-6.78Q268.48-6.78 272-9.86Z" fill="url(#editing-gradow-gradient)"></path></g></g><style>text {
  font-size: 64px;
  font-family: Arial Black;
  dominant-baseline: central;
  text-anchor: middle;
}</style></svg>